<svg id="Layer_1" data-name="Layer 1" xmlns="http://www.w3.org/2000/svg" viewBox="0 0 6154.32 2133.94"><defs><style>.cls-1,.cls-5{fill:#090909;}.cls-2{fill:#384f52;}.cls-3{fill:#191919;}.cls-4{fill:#494949;}.cls-5{font-size:32.54px;font-family:HelveticaNeue-Bold, Helvetica Neue;font-weight:700;}.cls-6{fill:#8e8e8e;}.cls-7{font-size:100px;}.cls-7,.cls-8{fill:#4a494a;font-family:HelveticaNeue, Helvetica Neue;}.cls-8{font-size:60px;}</style></defs><title>iPhoneX_overlay</title><path class="cls-1" d="M894.59,53.79H247.41c-73.36,0-132.83,59.85-132.83,133.69v1625c0,73.84,59.47,133.69,132.83,133.69H894.59c73.36,0,132.83-59.85,132.83-133.69v-1625C1027.42,113.64,968,53.79,894.59,53.79Zm91.5,1761.7c0,49.23-39.64,89.13-88.55,89.13H244.46c-48.91,0-88.55-39.9-88.55-89.13v-1631c0-49.23,39.64-89.13,88.55-89.13H347.77v13.37A50.34,50.34,0,0,0,398,159.25H744.79A50.34,50.34,0,0,0,795,108.75V95.38H897.54c48.91,0,88.55,39.9,88.55,89.13Z" transform="translate(-114.58 187.73)"/><path class="cls-1" d="M2110,53.79H1476.85c-71.77,0-129.95,59.85-129.95,133.69v1625c0,73.84,58.18,133.69,129.95,133.69H2110c71.77,0,129.95-59.85,129.95-133.69v-1625C2240,113.64,2181.78,53.79,2110,53.79Zm89.52,1761.7c0,49.23-38.78,89.13-86.63,89.13H1474c-47.85,0-86.63-39.9-86.63-89.13v-1631c0-49.23,38.78-89.13,86.63-89.13H1575v13.37c0,27.89,22,50.5,49.09,50.5h339.32c27.12,0,49.1-22.61,49.1-50.5V95.38H2112.9c47.85,0,86.63,39.9,86.63,89.13Z" transform="translate(-114.58 187.73)"/><ellipse class="cls-2" cx="1823.4" cy="300.97" rx="10.37" ry="10.67"/><rect class="cls-3" x="1596.97" y="295.65" width="163.76" height="10.63" rx="5.32"/><path class="cls-1" d="M1230.28,486.56h3.2a0,0,0,0,1,0,0v70.69a0,0,0,0,1,0,0h-3.2a8,8,0,0,1-8-8V494.56A8,8,0,0,1,1230.28,486.56Z"/><path class="cls-1" d="M1230.28,622.76H1239a0,0,0,0,1,0,0V753.51a0,0,0,0,1,0,0h-8.73a8,8,0,0,1-8-8V630.76a8,8,0,0,1,8-8Z"/><path class="cls-1" d="M1233.23,812.53h2.83a0,0,0,0,1,0,0v84.62a0,0,0,0,1,0,0h-2.83a8,8,0,0,1-8-8V820.53a8,8,0,0,1,8-8Z"/><path class="cls-1" d="M2123.47,667.58h3.65a8,8,0,0,1,8,8V872.81a8,8,0,0,1-8,8h-3.65a0,0,0,0,1,0,0V667.58A0,0,0,0,1,2123.47,667.58Z"/><path class="cls-1" d="M3324.77,53.79H2691.61c-71.77,0-130,59.85-130,133.69v1625c0,73.84,58.19,133.69,130,133.69h633.16c71.77,0,129.95-59.85,129.95-133.69v-1625C3454.72,113.64,3396.54,53.79,3324.77,53.79Zm89.52,1761.7c0,49.23-38.79,89.13-86.63,89.13H2688.72c-47.85,0-86.64-39.9-86.64-89.13v-1631c0-49.23,38.79-89.13,86.64-89.13h101.07v13.37c0,27.89,22,50.5,49.1,50.5h339.32c27.11,0,49.09-22.61,49.09-50.5V95.38h100.36c47.84,0,86.63,39.9,86.63,89.13Z" transform="translate(-114.58 187.73)"/><ellipse class="cls-2" cx="3038.16" cy="300.97" rx="10.37" ry="10.67"/><rect class="cls-3" x="2811.73" y="295.65" width="163.76" height="10.63" rx="5.32"/><path class="cls-1" d="M2445,486.56h3.2a0,0,0,0,1,0,0v70.69a0,0,0,0,1,0,0H2445a8,8,0,0,1-8-8V494.56A8,8,0,0,1,2445,486.56Z"/><path class="cls-1" d="M2445,622.76h8.73a0,0,0,0,1,0,0V753.51a0,0,0,0,1,0,0H2445a8,8,0,0,1-8-8V630.76A8,8,0,0,1,2445,622.76Z"/><path class="cls-1" d="M2448,812.53h2.83a0,0,0,0,1,0,0v84.62a0,0,0,0,1,0,0H2448a8,8,0,0,1-8-8V820.53a8,8,0,0,1,8-8Z"/><path class="cls-1" d="M3338.23,667.58h3.65a8,8,0,0,1,8,8V872.81a8,8,0,0,1-8,8h-3.65a0,0,0,0,1,0,0V667.58A0,0,0,0,1,3338.23,667.58Z"/><rect class="cls-4" x="2706.44" y="2030.89" width="374.33" height="14.85" rx="7.43"/><path class="cls-1" d="M3307.17,125.66c-6-.07-12.61,2.07-19,8.84l4.35,4.28c5-5.44,10.07-7.27,14.64-7.32s9.68,1.88,14.65,7.32l4.34-4.28C3319.78,127.73,3313.14,125.59,3307.17,125.66Z" transform="translate(-114.58 187.73)"/><path class="cls-1" d="M3318.94,141.61c-3.63-4-7.5-5.59-11.17-5.76l-.36,0h-.47l-.37,0c-3.67.17-7.54,1.72-11.17,5.76l3.13,3.08c3.06-2.56,5.95-3.88,8.64-3.88s5.58,1.32,8.64,3.88Z" transform="translate(-114.58 187.73)"/><path class="cls-1" d="M3307.41,145.09h-.28c-1.78.1-3.44.92-5.35,3.17,5.06,5,5.46,5.33,5.49,5.37s.43-.4,5.49-5.37C3310.85,146,3309.19,145.19,3307.41,145.09Z" transform="translate(-114.58 187.73)"/><rect class="cls-1" x="3133.91" y="326.52" width="7.15" height="15.26"/><rect class="cls-1" x="3122" y="331.67" width="7.15" height="10.12"/><rect class="cls-1" x="3146.09" y="321" width="7.15" height="20.78"/><rect class="cls-1" x="3158.14" y="315.42" width="7.15" height="26.36"/><rect class="cls-1" x="3218.94" y="322.71" width="40.68" height="16.75" rx="6"/><text class="cls-5" transform="translate(2563.61 343.09) scale(0.97 1)">7:13</text><path id="base-2" class="cls-6" d="M4295,69.88h621.41c70.44,0,127.54,58.76,127.54,131.24V1796.48c0,72.49-57.1,131.25-127.54,131.25H4295c-70.44,0-127.54-58.76-127.54-131.25V201.12C4167.41,128.64,4224.51,69.88,4295,69.88Z" transform="translate(-114.58 187.73)"/><rect class="cls-4" x="5540.87" y="2030.89" width="374.33" height="14.85" rx="7.43"/><path class="cls-1" d="M6141.6,125.66c-6-.07-12.61,2.07-19,8.84l4.35,4.28c5-5.44,10.07-7.27,14.64-7.32s9.68,1.88,14.65,7.32l4.34-4.28C6154.21,127.73,6147.56,125.59,6141.6,125.66Z" transform="translate(-114.58 187.73)"/><path class="cls-1" d="M6153.37,141.61c-3.63-4-7.5-5.59-11.17-5.76l-.36,0h-.47l-.37,0c-3.67.17-7.54,1.72-11.17,5.76l3.13,3.08c3.06-2.56,5.95-3.88,8.64-3.88s5.58,1.32,8.64,3.88Z" transform="translate(-114.58 187.73)"/><path class="cls-1" d="M6141.84,145.09h-.28c-1.78.1-3.44.92-5.35,3.17,5.06,5,5.46,5.33,5.49,5.37s.43-.4,5.49-5.37C6145.28,146,6143.62,145.19,6141.84,145.09Z" transform="translate(-114.58 187.73)"/><rect class="cls-1" x="5968.34" y="326.52" width="7.15" height="15.26"/><rect class="cls-1" x="5956.43" y="331.67" width="7.15" height="10.12"/><rect class="cls-1" x="5980.52" y="321" width="7.15" height="20.78"/><rect class="cls-1" x="5992.57" y="315.42" width="7.15" height="26.36"/><rect class="cls-1" x="6053.37" y="322.71" width="40.68" height="16.75" rx="6"/><text class="cls-5" transform="translate(5398.04 343.09) scale(0.97 1)">7:13</text><text class="cls-7" transform="translate(4192.87 85.7)">Clipping Mask</text><text class="cls-8" transform="translate(5301.44 81.88)">System Font is Helvetica Neue</text></svg>